<svg width="150" height="150" viewBox="0 0 150 150" fill="none" xmlns="http://www.w3.org/2000/svg">
<path d="M12.5 123.75C11.12 123.75 10 122.632 10 121.25V78.75C10 77.3675 11.12 76.25 12.5 76.25C13.88 76.25 15 77.3675 15 78.75V121.25C15 122.632 13.88 123.75 12.5 123.75Z" fill="#D1D4D1"/>
<path d="M137.5 123.75C136.12 123.75 135 122.632 135 121.25V78.75C135 77.3675 136.12 76.25 137.5 76.25C138.88 76.25 140 77.3675 140 78.75V121.25C140 122.632 138.88 123.75 137.5 123.75Z" fill="#D1D4D1"/>
<path d="M22.5 103.75C21.12 103.75 20 102.632 20 101.25V78.75C20 77.3675 21.12 76.25 22.5 76.25C23.88 76.25 25 77.3675 25 78.75V101.25C25 102.632 23.88 103.75 22.5 103.75Z" fill="#D1D4D1"/>
<path d="M30 103.75C28.62 103.75 27.5 102.632 27.5 101.25V78.75C27.5 77.3675 28.62 76.25 30 76.25C31.38 76.25 32.5 77.3675 32.5 78.75V101.25C32.5 102.632 31.38 103.75 30 103.75Z" fill="#D1D4D1"/>
<path d="M42.5 103.75C41.12 103.75 40 102.632 40 101.25V78.75C40 77.3675 41.12 76.25 42.5 76.25C43.88 76.25 45 77.3675 45 78.75V101.25C45 102.632 43.88 103.75 42.5 103.75Z" fill="#D1D4D1"/>
<path d="M50 103.75C48.62 103.75 47.5 102.632 47.5 101.25V78.75C47.5 77.3675 48.62 76.25 50 76.25C51.38 76.25 52.5 77.3675 52.5 78.75V101.25C52.5 102.632 51.38 103.75 50 103.75Z" fill="#D1D4D1"/>
<path d="M57.5 103.75C56.12 103.75 55 102.632 55 101.25V78.75C55 77.3675 56.12 76.25 57.5 76.25C58.88 76.25 60 77.3675 60 78.75V101.25C60 102.632 58.88 103.75 57.5 103.75Z" fill="#D1D4D1"/>
<path d="M72.5 103.75C71.12 103.75 70 102.632 70 101.25V78.75C70 77.3675 71.12 76.25 72.5 76.25C73.88 76.25 75 77.3675 75 78.75V101.25C75 102.632 73.88 103.75 72.5 103.75Z" fill="#D1D4D1"/>
<path d="M85 103.75C83.62 103.75 82.5 102.632 82.5 101.25V78.75C82.5 77.3675 83.62 76.25 85 76.25C86.38 76.25 87.5 77.3675 87.5 78.75V101.25C87.5 102.632 86.38 103.75 85 103.75Z" fill="#D1D4D1"/>
<path d="M92.5 103.75C91.12 103.75 90 102.632 90 101.25V78.75C90 77.3675 91.12 76.25 92.5 76.25C93.88 76.25 95 77.3675 95 78.75V101.25C95 102.632 93.88 103.75 92.5 103.75Z" fill="#D1D4D1"/>
<path d="M105 103.75C103.62 103.75 102.5 102.632 102.5 101.25V78.75C102.5 77.3675 103.62 76.25 105 76.25C106.38 76.25 107.5 77.3675 107.5 78.75V101.25C107.5 102.632 106.38 103.75 105 103.75Z" fill="#D1D4D1"/>
<path d="M112.5 103.75C111.12 103.75 110 102.632 110 101.25V78.75C110 77.3675 111.12 76.25 112.5 76.25C113.88 76.25 115 77.3675 115 78.75V101.25C115 102.632 113.88 103.75 112.5 103.75Z" fill="#D1D4D1"/>
<path d="M127.5 103.75C126.12 103.75 125 102.632 125 101.25V78.75C125 77.3675 126.12 76.25 127.5 76.25C128.88 76.25 130 77.3675 130 78.75V101.25C130 102.632 128.88 103.75 127.5 103.75Z" fill="#D1D4D1"/>
<path d="M12.5 66.25C11.12 66.25 10 65.1325 10 63.75V28.75C10 27.3675 11.12 26.25 12.5 26.25C13.88 26.25 15 27.3675 15 28.75V63.75C15 65.1325 13.88 66.25 12.5 66.25Z" fill="#D1D4D1"/>
<path d="M137.5 66.25C136.12 66.25 135 65.1325 135 63.75V28.75C135 27.3675 136.12 26.25 137.5 26.25C138.88 26.25 140 27.3675 140 28.75V63.75C140 65.1325 138.88 66.25 137.5 66.25Z" fill="#D1D4D1"/>
<path d="M22.5 66.25C21.12 66.25 20 65.1325 20 63.75V28.75C20 27.3675 21.12 26.25 22.5 26.25C23.88 26.25 25 27.3675 25 28.75V63.75C25 65.1325 23.88 66.25 22.5 66.25Z" fill="#D1D4D1"/>
<path d="M30 66.25C28.62 66.25 27.5 65.1325 27.5 63.75V28.75C27.5 27.3675 28.62 26.25 30 26.25C31.38 26.25 32.5 27.3675 32.5 28.75V63.75C32.5 65.1325 31.38 66.25 30 66.25Z" fill="#D1D4D1"/>
<path d="M42.5 66.25C41.12 66.25 40 65.1325 40 63.75V28.75C40 27.3675 41.12 26.25 42.5 26.25C43.88 26.25 45 27.3675 45 28.75V63.75C45 65.1325 43.88 66.25 42.5 66.25Z" fill="#D1D4D1"/>
<path d="M50 66.25C48.62 66.25 47.5 65.1325 47.5 63.75V28.75C47.5 27.3675 48.62 26.25 50 26.25C51.38 26.25 52.5 27.3675 52.5 28.75V63.75C52.5 65.1325 51.38 66.25 50 66.25Z" fill="#D1D4D1"/>
<path d="M57.5 66.25C56.12 66.25 55 65.1325 55 63.75V28.75C55 27.3675 56.12 26.25 57.5 26.25C58.88 26.25 60 27.3675 60 28.75V63.75C60 65.1325 58.88 66.25 57.5 66.25Z" fill="#D1D4D1"/>
<path d="M72.5 66.25C71.12 66.25 70 65.1325 70 63.75V28.75C70 27.3675 71.12 26.25 72.5 26.25C73.88 26.25 75 27.3675 75 28.75V63.75C75 65.1325 73.88 66.25 72.5 66.25Z" fill="#D1D4D1"/>
<path d="M85 66.25C83.62 66.25 82.5 65.1325 82.5 63.75V28.75C82.5 27.3675 83.62 26.25 85 26.25C86.38 26.25 87.5 27.3675 87.5 28.75V63.75C87.5 65.1325 86.38 66.25 85 66.25Z" fill="#D1D4D1"/>
<path d="M92.5 66.25C91.12 66.25 90 65.1325 90 63.75V28.75C90 27.3675 91.12 26.25 92.5 26.25C93.88 26.25 95 27.3675 95 28.75V63.75C95 65.1325 93.88 66.25 92.5 66.25Z" fill="#D1D4D1"/>
<path d="M105 66.25C103.62 66.25 102.5 65.1325 102.5 63.75V28.75C102.5 27.3675 103.62 26.25 105 26.25C106.38 26.25 107.5 27.3675 107.5 28.75V63.75C107.5 65.1325 106.38 66.25 105 66.25Z" fill="#D1D4D1"/>
<path d="M112.5 66.25C111.12 66.25 110 65.1325 110 63.75V28.75C110 27.3675 111.12 26.25 112.5 26.25C113.88 26.25 115 27.3675 115 28.75V63.75C115 65.1325 113.88 66.25 112.5 66.25Z" fill="#D1D4D1"/>
<path d="M127.5 66.25C126.12 66.25 125 65.1325 125 63.75V28.75C125 27.3675 126.12 26.25 127.5 26.25C128.88 26.25 130 27.3675 130 28.75V63.75C130 65.1325 128.88 66.25 127.5 66.25Z" fill="#D1D4D1"/>
<path d="M22.5 118.75C21.12 118.75 20 117.632 20 116.25V113.75C20 112.368 21.12 111.25 22.5 111.25C23.88 111.25 25 112.368 25 113.75V116.25C25 117.632 23.88 118.75 22.5 118.75Z" fill="#D1D4D1"/>
<path d="M30 118.75C28.62 118.75 27.5 117.632 27.5 116.25V113.75C27.5 112.368 28.62 111.25 30 111.25C31.38 111.25 32.5 112.368 32.5 113.75V116.25C32.5 117.632 31.38 118.75 30 118.75Z" fill="#D1D4D1"/>
<path d="M37.5 118.75C36.12 118.75 35 117.632 35 116.25V113.75C35 112.368 36.12 111.25 37.5 111.25C38.88 111.25 40 112.368 40 113.75V116.25C40 117.632 38.88 118.75 37.5 118.75Z" fill="#D1D4D1"/>
<path d="M45 118.75C43.62 118.75 42.5 117.632 42.5 116.25V113.75C42.5 112.368 43.62 111.25 45 111.25C46.38 111.25 47.5 112.368 47.5 113.75V116.25C47.5 117.632 46.38 118.75 45 118.75Z" fill="#D1D4D1"/>
<path d="M52.5 118.75C51.12 118.75 50 117.632 50 116.25V113.75C50 112.368 51.12 111.25 52.5 111.25C53.88 111.25 55 112.368 55 113.75V116.25C55 117.632 53.88 118.75 52.5 118.75Z" fill="#D1D4D1"/>
<path d="M60 118.75C58.62 118.75 57.5 117.632 57.5 116.25V113.75C57.5 112.368 58.62 111.25 60 111.25C61.38 111.25 62.5 112.368 62.5 113.75V116.25C62.5 117.632 61.38 118.75 60 118.75Z" fill="#D1D4D1"/>
<path d="M67.5 118.75C66.12 118.75 65 117.632 65 116.25V113.75C65 112.368 66.12 111.25 67.5 111.25C68.88 111.25 70 112.368 70 113.75V116.25C70 117.632 68.88 118.75 67.5 118.75Z" fill="#D1D4D1"/>
<path d="M75 118.75C73.62 118.75 72.5 117.632 72.5 116.25V113.75C72.5 112.368 73.62 111.25 75 111.25C76.38 111.25 77.5 112.368 77.5 113.75V116.25C77.5 117.632 76.38 118.75 75 118.75Z" fill="#D1D4D1"/>
<path d="M82.5 118.75C81.12 118.75 80 117.632 80 116.25V113.75C80 112.368 81.12 111.25 82.5 111.25C83.88 111.25 85 112.368 85 113.75V116.25C85 117.632 83.88 118.75 82.5 118.75Z" fill="#D1D4D1"/>
<path d="M90 118.75C88.62 118.75 87.5 117.632 87.5 116.25V113.75C87.5 112.368 88.62 111.25 90 111.25C91.38 111.25 92.5 112.368 92.5 113.75V116.25C92.5 117.632 91.38 118.75 90 118.75Z" fill="#D1D4D1"/>
<path d="M97.5 118.75C96.12 118.75 95 117.632 95 116.25V113.75C95 112.368 96.12 111.25 97.5 111.25C98.88 111.25 100 112.368 100 113.75V116.25C100 117.632 98.88 118.75 97.5 118.75Z" fill="#D1D4D1"/>
<path d="M105 118.75C103.62 118.75 102.5 117.632 102.5 116.25V113.75C102.5 112.368 103.62 111.25 105 111.25C106.38 111.25 107.5 112.368 107.5 113.75V116.25C107.5 117.632 106.38 118.75 105 118.75Z" fill="#D1D4D1"/>
<path d="M112.5 118.75C111.12 118.75 110 117.632 110 116.25V113.75C110 112.368 111.12 111.25 112.5 111.25C113.88 111.25 115 112.368 115 113.75V116.25C115 117.632 113.88 118.75 112.5 118.75Z" fill="#D1D4D1"/>
<path d="M120 118.75C118.62 118.75 117.5 117.632 117.5 116.25V113.75C117.5 112.368 118.62 111.25 120 111.25C121.38 111.25 122.5 112.368 122.5 113.75V116.25C122.5 117.632 121.38 118.75 120 118.75Z" fill="#D1D4D1"/>
<path d="M127.5 118.75C126.12 118.75 125 117.632 125 116.25V113.75C125 112.368 126.12 111.25 127.5 111.25C128.88 111.25 130 112.368 130 113.75V116.25C130 117.632 128.88 118.75 127.5 118.75Z" fill="#D1D4D1"/>
<path d="M20 138.75H0V121.25C0 119.868 1.12 118.75 2.5 118.75C3.88 118.75 5 119.868 5 121.25V133.75H20C21.38 133.75 22.5 134.868 22.5 136.25C22.5 137.632 21.38 138.75 20 138.75Z" fill="#8697CB"/>
<path d="M150 138.75H132.5C131.12 138.75 130 137.632 130 136.25C130 134.868 131.12 133.75 132.5 133.75H145V121.25C145 119.868 146.12 118.75 147.5 118.75C148.88 118.75 150 119.868 150 121.25V138.75Z" fill="#8697CB"/>
<path d="M147.5 31.25C146.12 31.25 145 30.1325 145 28.75V16.25H130C128.62 16.25 127.5 15.1325 127.5 13.75C127.5 12.3675 128.62 11.25 130 11.25H150V28.75C150 30.1325 148.88 31.25 147.5 31.25Z" fill="#8697CB"/>
<path d="M2.5 31.25C1.12 31.25 0 30.1325 0 28.75V11.25H17.5C18.88 11.25 20 12.3675 20 13.75C20 15.1325 18.88 16.25 17.5 16.25H5V28.75C5 30.1325 3.88 31.25 2.5 31.25Z" fill="#8697CB"/>
<path d="M147.5 73.75H2.5C1.12 73.75 0 72.6325 0 71.25C0 69.8675 1.12 68.75 2.5 68.75H147.5C148.88 68.75 150 69.8675 150 71.25C150 72.6325 148.88 73.75 147.5 73.75Z" fill="#D75A4A"/>
</svg>
