<svg width="30" height="30" viewBox="0 0 30 30" fill="none" xmlns="http://www.w3.org/2000/svg">
<path d="M17.4157 8.2851H16.0128V4.42195C16.0128 2.75725 14.6584 1.40285 12.9937 1.40285C12.1877 1.40285 11.4297 1.71703 10.8592 2.2875C10.2887 2.85744 9.9746 3.61535 9.9746 4.42195V8.2851H8.57175V4.42195C8.57175 3.24041 9.03194 2.12994 9.86755 1.29527C10.7027 0.460137 11.813 0 12.9937 0C15.432 0 17.4157 1.98369 17.4157 4.42195V8.2851Z" fill="#FFFEFE"/>
<path d="M10.5813 6.03978L9.55513 30H2.7197L2.74776 29.3498L3.7452 6.03978H10.5813Z" fill="#AA7815"/>
<path d="M10.9131 24.7259L8.06181 26.9986L4.29511 30H2.7197L8.11723 25.6981H8.11794L10.3008 23.9586L10.9131 24.7259Z" fill="#986F1D"/>
<path d="M26.2548 6.03978L27.2803 30H22.0666H7.93341L8.95962 6.03978H21.0411H26.2548Z" fill="#DA9F2B"/>
<path d="M8.75567 18.2971C7.84667 18.2971 7.10718 17.5575 7.10718 16.6486C7.10718 15.7396 7.84671 15 8.75567 15C9.66471 15 10.4042 15.7395 10.4042 16.6486C10.4042 17.5576 9.66471 18.2971 8.75567 18.2971ZM8.75567 15.7421C8.25581 15.7421 7.84919 16.1487 7.84919 16.6486C7.84919 17.1485 8.25586 17.5551 8.75567 17.5551C9.25552 17.5551 9.66219 17.1484 9.66219 16.6486C9.66219 16.1487 9.25556 15.7421 8.75567 15.7421Z" fill="white"/>
<path d="M8.85101 20.7445C8.75604 20.7445 8.66108 20.7083 8.58864 20.6358C8.44376 20.4909 8.44376 20.256 8.58864 20.1111L12.2183 16.4815C12.3633 16.3366 12.5982 16.3366 12.743 16.4815C12.8879 16.6263 12.8879 16.8612 12.743 17.0061L9.11337 20.6358C9.04093 20.7083 8.94593 20.7445 8.85101 20.7445Z" fill="white"/>
<path d="M12.5759 22.1173C11.6669 22.1173 10.9274 21.3778 10.9274 20.4688C10.9274 19.5598 11.667 18.8202 12.5759 18.8202C13.485 18.8202 14.2245 19.5598 14.2245 20.4688C14.2245 21.3778 13.485 22.1173 12.5759 22.1173ZM12.5759 19.5622C12.0761 19.5622 11.6694 19.9689 11.6694 20.4688C11.6694 20.9686 12.0761 21.3752 12.5759 21.3752C13.0758 21.3752 13.4824 20.9686 13.4824 20.4688C13.4824 19.9689 13.0758 19.5622 12.5759 19.5622Z" fill="white"/>
<path d="M20.6262 9.63076L19.9104 6.03978L21.3834 6.04049L20.6262 9.63076Z" fill="#9C7019"/>
<path d="M13.1851 9.63076L12.4693 6.03978L13.9423 6.04049L13.1851 9.63076Z" fill="#9C7019"/>
<path d="M21.3276 10.3322C20.9403 10.3322 20.6262 10.0182 20.6262 9.63082V4.42201C20.6262 2.7573 19.2718 1.40291 17.6071 1.40291C15.9424 1.40291 14.588 2.75725 14.588 4.42201V9.63076C14.588 10.0182 14.2738 10.3322 13.8865 10.3322C13.4992 10.3322 13.1851 10.0182 13.1851 9.63076V4.42201C13.1851 1.98375 15.1688 5.72205e-05 17.6071 5.72205e-05C20.0454 5.72205e-05 22.029 1.98375 22.029 4.42201V9.63076C22.029 10.0182 21.715 10.3322 21.3276 10.3322Z" fill="#FEFEFE"/>
</svg>
