<svg xmlns="http://www.w3.org/2000/svg" viewBox="0 0 788.07 788.07"><path d="M0,2.59V5.17l2.46-2.4A20.07,20.07,0,0,0,4.93.18,7.85,7.85,0,0,0,2.46,0H0Z"/><path d="M76.22,2.59l2.59,2.64,2.58-2.64L84,0H73.57Z"/><path d="M155,2.59l2.58,2.64,2.59-2.64L162.85,0H152.38Z"/><path d="M233.84,2.59l2.58,2.64L239,2.59,241.65,0H231.19Z"/><path d="M312.64,2.59l2.59,2.64,2.58-2.64L320.46,0H310Z"/><path d="M391.45,2.59,394,5.23l2.58-2.64L399.27,0H388.8Z"/><path d="M470.26,2.59l2.58,2.64,2.59-2.64L478.08,0H467.61Z"/><path d="M549.06,2.59l2.59,2.64,2.58-2.64L556.88,0H546.42Z"/><path d="M627.87,2.59l2.59,2.64L633,2.59,635.69,0H625.22Z"/><path d="M706.68,2.59l2.58,2.64,2.59-2.64L714.5,0H704Z"/><path d="M785.3,2.46a20.07,20.07,0,0,0,2.59,2.47,7.85,7.85,0,0,0,.18-2.47V0H782.9Z"/><path d="M36.14,36.2c-1.23,1.29-2.28,2.77-2.28,3.27,0,1.16,4.37,5.47,5.61,5.47s5.47-4.37,5.47-5.6-4.37-5.48-5.6-5.48C38.85,33.86,37.37,34.91,36.14,36.2Z"/><path d="M115,36.2c-1.23,1.29-2.28,2.77-2.28,3.27,0,1.16,4.37,5.47,5.6,5.47s5.48-4.37,5.48-5.6-4.37-5.48-5.6-5.48C117.66,33.86,116.18,34.91,115,36.2Z"/><path d="M193.75,36.2c-1.23,1.29-2.27,2.77-2.27,3.27,0,1.16,4.37,5.47,5.6,5.47s5.48-4.37,5.48-5.6-4.37-5.48-5.6-5.48C196.46,33.86,195,34.91,193.75,36.2Z"/><path d="M272.56,36.2c-1.23,1.29-2.28,2.77-2.28,3.27,0,1.16,4.37,5.47,5.61,5.47s5.48-4.37,5.48-5.6-4.38-5.48-5.61-5.48C275.27,33.86,273.79,34.91,272.56,36.2Z"/><path d="M351.37,36.2c-1.23,1.29-2.28,2.77-2.28,3.27,0,1.16,4.37,5.47,5.6,5.47s5.48-4.37,5.48-5.6-4.37-5.48-5.6-5.48C354.08,33.86,352.6,34.91,351.37,36.2Z"/><path d="M430.18,36.2c-1.24,1.29-2.28,2.77-2.28,3.27,0,1.16,4.37,5.47,5.6,5.47s5.48-4.37,5.48-5.6-4.37-5.48-5.6-5.48C432.88,33.86,431.41,34.91,430.18,36.2Z"/><path d="M509,36.2c-1.23,1.29-2.28,2.77-2.28,3.27,0,1.16,4.38,5.47,5.61,5.47s5.48-4.37,5.48-5.6-4.37-5.48-5.61-5.48C511.69,33.86,510.21,34.91,509,36.2Z"/><path d="M587.79,36.2c-1.23,1.29-2.28,2.77-2.28,3.27,0,1.16,4.37,5.47,5.6,5.47s5.48-4.37,5.48-5.6-4.37-5.48-5.6-5.48C590.5,33.86,589,34.91,587.79,36.2Z"/><path d="M666.6,36.2c-1.23,1.29-2.28,2.77-2.28,3.27,0,1.16,4.37,5.47,5.6,5.47s5.48-4.37,5.48-5.6-4.37-5.48-5.6-5.48C669.31,33.86,667.83,34.91,666.6,36.2Z"/><path d="M745.4,36.2c-1.23,1.29-2.27,2.77-2.27,3.27,0,1.16,4.37,5.47,5.6,5.47s5.48-4.37,5.48-5.6-4.37-5.48-5.6-5.48C748.11,33.86,746.63,34.91,745.4,36.2Z"/><path d="M0,78.81c0,7.57.06,8,1.11,7.45C2.59,85.46,8,79.61,8,78.81s-5.41-6.65-6.89-7.45C.06,70.8,0,71.23,0,78.81Z"/><path d="M74.37,74.37c-2,2-3.57,4-3.57,4.44,0,1,7,8,8,8s8-7,8-8-7-8-8-8C78.38,70.8,76.41,72.4,74.37,74.37Z"/><path d="M153.18,74.37c-2,2-3.57,4-3.57,4.44,0,1,7,8,8,8s8-7,8-8-7-8-8-8C157.18,70.8,155.21,72.4,153.18,74.37Z"/><path d="M232,74.37c-2,2-3.57,4-3.57,4.44,0,1,7,8,8,8s8-7,8-8-6.95-8-8-8C236,70.8,234,72.4,232,74.37Z"/><path d="M310.8,74.37c-2,2-3.58,4-3.58,4.44,0,1,7,8,8,8s8-7,8-8-7-8-8-8C314.8,70.8,312.83,72.4,310.8,74.37Z"/><path d="M389.6,74.37c-2,2-3.57,4-3.57,4.44,0,1,7,8,8,8s8-7,8-8-7-8-8-8C393.6,70.8,391.63,72.4,389.6,74.37Z"/><path d="M468.41,74.37c-2,2-3.57,4-3.57,4.44,0,1,7,8,8,8s8-7,8-8-7-8-8-8C472.41,70.8,470.44,72.4,468.41,74.37Z"/><path d="M547.22,74.37c-2,2-3.57,4-3.57,4.44,0,1,7,8,8,8s8-7,8-8-6.95-8-8-8C551.22,70.8,549.25,72.4,547.22,74.37Z"/><path d="M626,74.37c-2,2-3.57,4-3.57,4.44,0,1,7,8,8,8,.43,0,2.4-1.6,4.43-3.57s3.57-4,3.57-4.43-1.6-2.4-3.57-4.44-4-3.57-4.43-3.57S628.05,72.4,626,74.37Z"/><path d="M704.83,74.37c-2,2-3.57,4-3.57,4.44s1.6,2.4,3.57,4.43,4,3.57,4.43,3.57,2.4-1.6,4.44-3.57,3.57-4,3.57-4.43-1.6-2.4-3.57-4.44-4-3.57-4.44-3.57S706.86,72.4,704.83,74.37Z"/><path d="M784,74.25c-2.16,2-3.88,4.13-3.88,4.56s1.72,2.52,3.88,4.55l3.81,3.76.19-4.19c.12-2.28.12-6,0-8.31l-.19-4.12Z"/><path d="M34.91,113.78c-1.91,2-3.51,3.94-3.51,4.49,0,1.17,6.83,7.94,8.07,7.94s7.94-6.83,7.94-8.06-6.84-7.94-8.07-7.94C38.85,110.21,36.88,111.81,34.91,113.78Z"/><path d="M113.72,113.78c-1.91,2-3.51,3.94-3.51,4.49,0,1.17,6.83,7.94,8.06,7.94s7.94-6.83,7.94-8.06-6.83-7.94-8.06-7.94C117.66,110.21,115.69,111.81,113.72,113.78Z"/><path d="M192.52,113.78c-1.91,2-3.51,3.94-3.51,4.49,0,1.17,6.84,7.94,8.07,7.94s7.94-6.83,7.94-8.06-6.83-7.94-8.06-7.94C196.46,110.21,194.49,111.81,192.52,113.78Z"/><path d="M271.33,113.78c-1.91,2-3.51,3.94-3.51,4.49,0,1.17,6.83,7.94,8.07,7.94s7.94-6.83,7.94-8.06-6.84-7.94-8.07-7.94C275.27,110.21,273.3,111.81,271.33,113.78Z"/><path d="M350.14,113.78c-1.91,2-3.51,3.94-3.51,4.49,0,1.17,6.83,7.94,8.06,7.94s7.95-6.83,7.95-8.06-6.84-7.94-8.07-7.94C354.08,110.21,352.11,111.81,350.14,113.78Z"/><path d="M428.94,113.78c-1.9,2-3.51,3.94-3.51,4.49,0,1.17,6.84,7.94,8.07,7.94s7.94-6.83,7.94-8.06-6.83-7.94-8.06-7.94C432.88,110.21,430.91,111.81,428.94,113.78Z"/><path d="M507.75,113.78c-1.91,2-3.51,3.94-3.51,4.49,0,1.17,6.84,7.94,8.07,7.94s7.94-6.83,7.94-8.06-6.83-7.94-8.07-7.94C511.69,110.21,509.72,111.81,507.75,113.78Z"/><path d="M586.56,113.78c-1.91,2-3.51,3.94-3.51,4.49,0,1.17,6.83,7.94,8.06,7.94s7.95-6.83,7.95-8.06-6.84-7.94-8.07-7.94C590.5,110.21,588.53,111.81,586.56,113.78Z"/><path d="M665.37,113.78c-1.91,2-3.51,3.94-3.51,4.49,0,1.17,6.83,7.94,8.06,7.94s7.94-6.83,7.94-8.06-6.83-7.94-8.06-7.94C669.31,110.21,667.34,111.81,665.37,113.78Z"/><path d="M744.17,113.78c-1.91,2-3.51,3.94-3.51,4.49,0,1.17,6.84,7.94,8.07,7.94s7.94-6.83,7.94-8.06-6.83-7.94-8.06-7.94C748.11,110.21,746.14,111.81,744.17,113.78Z"/><path d="M0,157.61c0,7.64.18,10.47.74,10.47.37,0,2.71-2,5.23-4.49,3-3.08,4.5-5,4.5-6s-1.48-2.89-4.5-6c-2.52-2.46-4.86-4.49-5.23-4.49C.18,147.15,0,150,0,157.61Z"/><path d="M72.83,151.64c-3,3.08-4.49,5-4.49,6,0,2,8.44,10.47,10.47,10.47s10.46-8.43,10.46-10.47-8.43-10.46-10.46-10.46C77.82,147.15,75.91,148.63,72.83,151.64Z"/><path d="M151.64,151.64c-3,3.08-4.49,5-4.49,6,0,2,8.43,10.47,10.46,10.47s10.47-8.43,10.47-10.47-8.43-10.46-10.47-10.46C156.63,147.15,154.72,148.63,151.64,151.64Z"/><path d="M230.45,151.64c-3,3.08-4.5,5-4.5,6,0,2,8.44,10.47,10.47,10.47s10.47-8.43,10.47-10.47-8.44-10.46-10.47-10.46C235.44,147.15,233.53,148.63,230.45,151.64Z"/><path d="M309.26,151.64c-3,3.08-4.5,5-4.5,6,0,2,8.44,10.47,10.47,10.47,1,0,2.89-1.48,6-4.49s4.49-5,4.49-6c0-2-8.43-10.46-10.46-10.46C314.24,147.15,312.33,148.63,309.26,151.64Z"/><path d="M388.06,151.64c-3,3.08-4.49,5-4.49,6s1.48,2.9,4.49,6,5,4.49,6,4.49,2.89-1.48,6-4.49,4.49-5,4.49-6c0-2-8.43-10.46-10.46-10.46C393.05,147.15,391.14,148.63,388.06,151.64Z"/><path d="M466.87,151.64c-3,3.08-4.49,5-4.49,6s1.47,2.9,4.49,6,5,4.49,6,4.49,2.9-1.48,6-4.49,4.5-5,4.5-6c0-2-8.44-10.46-10.47-10.46C471.86,147.15,470,148.63,466.87,151.64Z"/><path d="M545.68,151.64c-3,3.08-4.5,5-4.5,6s1.48,2.9,4.5,6,5,4.49,6,4.49,2.89-1.48,6-4.49,4.5-5,4.5-6c0-2-8.44-10.46-10.47-10.46C550.66,147.15,548.76,148.63,545.68,151.64Z"/><path d="M624.48,151.64c-3,3.08-4.49,5-4.49,6s1.48,2.9,4.49,6,5,4.49,6,4.49c2,0,10.46-8.43,10.46-10.47s-8.43-10.46-10.46-10.46C629.47,147.15,627.56,148.63,624.48,151.64Z"/><path d="M703.29,151.64c-3,3.08-4.49,5-4.49,6,0,2,8.43,10.47,10.46,10.47s10.47-8.43,10.47-10.47c0-1-1.48-2.89-4.49-6s-5-4.49-6-4.49S706.37,148.63,703.29,151.64Z"/><path d="M782.1,151.64c-3,3.08-4.5,5-4.5,6s1.48,2.9,4.5,6c2.52,2.46,4.86,4.49,5.23,4.49.56,0,.74-2.83.74-10.47s-.18-10.46-.74-10.46C787,147.15,784.62,149.18,782.1,151.64Z"/><path d="M33.43,191.05c-2.83,2.83-5.11,5.47-5.11,6,0,1.11,10,11.08,11.08,11.08s11.09-10,11.09-11.08-10-11.08-11.09-11.08C38.91,185.94,36.26,188.21,33.43,191.05Z"/><path d="M112.24,191.05c-2.83,2.83-5.11,5.47-5.11,6,0,1.11,10,11.08,11.08,11.08s11.08-10,11.08-11.08-10-11.08-11.08-11.08C117.72,185.94,115.07,188.21,112.24,191.05Z"/><path d="M191.05,191.05c-2.84,2.83-5.11,5.47-5.11,6,0,1.11,10,11.08,11.08,11.08s11.08-10,11.08-11.08-10-11.08-11.08-11.08C196.52,185.94,193.88,188.21,191.05,191.05Z"/><path d="M269.85,191.05c-2.83,2.83-5.11,5.47-5.11,6,0,1.11,10,11.08,11.08,11.08s11.09-10,11.09-11.08-10-11.08-11.09-11.08C275.33,185.94,272.68,188.21,269.85,191.05Z"/><path d="M348.66,191.05c-2.83,2.83-5.11,5.47-5.11,6s2.28,3.14,5.11,6,5.48,5.11,6,5.11,3.14-2.28,6-5.11,5.11-5.48,5.11-6-2.27-3.14-5.11-6-5.48-5.11-6-5.11S351.49,188.21,348.66,191.05Z"/><path d="M427.47,191.05c-2.84,2.83-5.11,5.47-5.11,6s2.27,3.14,5.11,6,5.48,5.11,6,5.11,3.14-2.28,6-5.11,5.11-5.48,5.11-6-2.28-3.14-5.11-6-5.48-5.11-6-5.11S430.3,188.21,427.47,191.05Z"/><path d="M506.27,191.05c-2.83,2.83-5.11,5.47-5.11,6s2.28,3.14,5.11,6,5.48,5.11,6,5.11,3.14-2.28,6-5.11,5.11-5.48,5.11-6-2.28-3.14-5.11-6-5.48-5.11-6-5.11S509.11,188.21,506.27,191.05Z"/><path d="M585.08,191.05c-2.83,2.83-5.11,5.47-5.11,6s2.28,3.14,5.11,6,5.48,5.11,6,5.11,3.14-2.28,6-5.11,5.11-5.48,5.11-6-2.27-3.14-5.11-6-5.47-5.11-6-5.11S587.91,188.21,585.08,191.05Z"/><path d="M663.89,191.05c-2.83,2.83-5.11,5.47-5.11,6s2.28,3.14,5.11,6,5.48,5.11,6,5.11,3.14-2.28,6-5.11,5.11-5.48,5.11-6-2.28-3.14-5.11-6-5.48-5.11-6-5.11S666.72,188.21,663.89,191.05Z"/><path d="M742.69,191.05c-2.83,2.83-5.11,5.47-5.11,6s2.28,3.14,5.11,6,5.48,5.11,6,5.11,3.14-2.28,6-5.11,5.11-5.48,5.11-6-2.28-3.14-5.11-6-5.48-5.11-6-5.11S745.53,188.21,742.69,191.05Z"/><path d="M0,236.42C0,246.52.18,250,.74,250s3.45-2.71,6.77-6c4.25-4.25,6-6.46,6-7.51s-1.78-3.26-6-7.51c-3.32-3.32-6.34-6-6.77-6S0,226.32,0,236.42Z"/><path d="M71.3,228.91c-4.25,4.25-6,6.46-6,7.51,0,2.09,11.45,13.55,13.55,13.55s13.54-11.46,13.54-13.55S80.9,222.88,78.81,222.88C77.76,222.88,75.54,224.66,71.3,228.91Z"/><path d="M150.1,228.91c-4.25,4.25-6,6.46-6,7.51s1.78,3.26,6,7.51,6.47,6,7.51,6,3.27-1.79,7.52-6,6-6.46,6-7.51-1.79-3.26-6-7.51-6.47-6-7.52-6S154.35,224.66,150.1,228.91Z"/><path d="M228.91,228.91c-4.25,4.25-6,6.46-6,7.51s1.78,3.26,6,7.51,6.46,6,7.51,6,3.26-1.79,7.51-6,6-6.46,6-7.51-1.79-3.26-6-7.51-6.46-6-7.51-6S233.16,224.66,228.91,228.91Z"/><path d="M307.72,228.91c-4.25,4.25-6,6.46-6,7.51s1.79,3.26,6,7.51,6.46,6,7.51,6,3.26-1.79,7.51-6,6-6.46,6-7.51-1.78-3.26-6-7.51-6.47-6-7.51-6S312,224.66,307.72,228.91Z"/><path d="M386.52,228.91c-4.24,4.25-6,6.46-6,7.51s1.79,3.26,6,7.51,6.47,6,7.52,6,3.26-1.79,7.51-6,6-6.46,6-7.51-1.79-3.26-6-7.51-6.47-6-7.51-6S390.77,224.66,386.52,228.91Z"/><path d="M465.33,228.91c-4.25,4.25-6,6.46-6,7.51s1.78,3.26,6,7.51,6.47,6,7.51,6,3.27-1.79,7.51-6,6-6.46,6-7.51-1.79-3.26-6-7.51-6.46-6-7.51-6S469.58,224.66,465.33,228.91Z"/><path d="M544.14,228.91c-4.25,4.25-6,6.46-6,7.51s1.79,3.26,6,7.51,6.46,6,7.51,6,3.26-1.79,7.51-6,6-6.46,6-7.51-1.78-3.26-6-7.51-6.46-6-7.51-6S548.39,224.66,544.14,228.91Z"/><path d="M622.94,228.91c-4.24,4.25-6,6.46-6,7.51s1.79,3.26,6,7.51,6.47,6,7.52,6c2.09,0,13.54-11.46,13.54-13.55s-11.45-13.54-13.54-13.54C629.41,222.88,627.19,224.66,622.94,228.91Z"/><path d="M701.75,228.91c-4.25,4.25-6,6.46-6,7.51,0,2.09,11.45,13.55,13.54,13.55s13.55-11.46,13.55-13.55-11.45-13.54-13.55-13.54C708.22,222.88,706,224.66,701.75,228.91Z"/><path d="M780.56,228.91c-4.25,4.25-6,6.46-6,7.51s1.78,3.26,6,7.51c3.32,3.33,6.34,6,6.77,6s.74-3.45.74-13.55-.18-13.54-.74-13.54S783.88,225.59,780.56,228.91Z"/><path d="M32,268.37c-4.18,4.13-6.09,6.47-6.09,7.45,0,2,11.57,13.55,13.54,13.55S53,277.79,53,275.82,41.37,262.28,39.4,262.28C38.42,262.28,36.08,264.19,32,268.37Z"/><path d="M110.76,268.37c-4.19,4.13-6.09,6.47-6.09,7.45,0,2,11.57,13.55,13.54,13.55s13.55-11.58,13.55-13.55-11.58-13.54-13.55-13.54C117.23,262.28,114.89,264.19,110.76,268.37Z"/><path d="M189.57,268.37c-4.19,4.13-6.1,6.47-6.1,7.45s1.91,3.33,6.1,7.45,6.46,6.1,7.45,6.1,3.32-1.91,7.45-6.1,6.09-6.46,6.09-7.45c0-2-11.57-13.54-13.54-13.54C196,262.28,193.69,264.19,189.57,268.37Z"/><path d="M268.37,268.37c-4.18,4.13-6.09,6.47-6.09,7.45s1.91,3.33,6.09,7.45,6.47,6.1,7.45,6.1,3.33-1.91,7.45-6.1,6.1-6.46,6.1-7.45c0-2-11.58-13.54-13.55-13.54C274.84,262.28,272.5,264.19,268.37,268.37Z"/><path d="M347.18,268.37c-4.18,4.13-6.09,6.47-6.09,7.45s1.91,3.33,6.09,7.45,6.47,6.1,7.45,6.1,3.33-1.91,7.45-6.1,6.1-6.46,6.1-7.45-1.91-3.32-6.1-7.45-6.46-6.09-7.45-6.09S351.31,264.19,347.18,268.37Z"/><path d="M426,268.37c-4.19,4.13-6.1,6.47-6.1,7.45s1.91,3.33,6.1,7.45,6.46,6.1,7.45,6.1,3.32-1.91,7.45-6.1,6.09-6.46,6.09-7.45-1.91-3.32-6.09-7.45-6.47-6.09-7.45-6.09S430.11,264.19,426,268.37Z"/><path d="M504.8,268.37c-4.19,4.13-6.1,6.47-6.1,7.45s1.91,3.33,6.1,7.45,6.46,6.1,7.45,6.1,3.32-1.91,7.45-6.1,6.09-6.46,6.09-7.45-1.91-3.32-6.09-7.45-6.47-6.09-7.45-6.09S508.92,264.19,504.8,268.37Z"/><path d="M583.6,268.37c-4.18,4.13-6.09,6.47-6.09,7.45s1.91,3.33,6.09,7.45,6.47,6.1,7.45,6.1,3.33-1.91,7.45-6.1,6.1-6.46,6.1-7.45-1.91-3.32-6.1-7.45-6.46-6.09-7.45-6.09S587.73,264.19,583.6,268.37Z"/><path d="M662.41,268.37c-4.19,4.13-6.1,6.47-6.1,7.45s1.91,3.33,6.1,7.45,6.46,6.1,7.45,6.1,3.32-1.91,7.45-6.1,6.09-6.46,6.09-7.45-1.9-3.32-6.09-7.45-6.47-6.09-7.45-6.09S666.53,264.19,662.41,268.37Z"/><path d="M741.22,268.37c-4.19,4.13-6.1,6.47-6.1,7.45s1.91,3.33,6.1,7.45,6.46,6.1,7.45,6.1,3.32-1.91,7.45-6.1,6.09-6.46,6.09-7.45-1.91-3.32-6.09-7.45-6.47-6.09-7.45-6.09S745.34,264.19,741.22,268.37Z"/><path d="M0,315.29v16.62l1.42-.74c1.9-1,13.29-12.25,14.34-14.22a3.47,3.47,0,0,0,.31-3.08c-.68-1.66-13.42-14.34-15-14.83C.06,298.67,0,299.71,0,315.29Z"/><path d="M77.58,299c-1.48.49-14.23,13.23-14.84,14.83-.8,2.16.43,4,7.26,10.65,7,6.9,8.19,7.7,10.22,6.65S93.52,318.92,94.57,317c1.29-2.46.49-3.75-7-11C81.15,299.53,79.48,298.36,77.58,299Z"/><path d="M156.38,299c-1.47.49-14.22,13.23-14.84,14.83-.8,2.16.44,4,7.27,10.65,7,6.9,8.19,7.7,10.22,6.65s13.3-12.25,14.35-14.22c1.29-2.46.49-3.75-7-11C160,299.53,158.29,298.36,156.38,299Z"/><path d="M235.19,299c-1.48.49-14.22,13.23-14.84,14.83-.8,2.16.43,4,7.27,10.65,6.95,6.9,8.19,7.7,10.22,6.65s13.3-12.25,14.34-14.22c1.3-2.46.49-3.75-7-11C238.76,299.53,237.1,298.36,235.19,299Z"/><path d="M314,299c-1.48.49-14.23,13.23-14.84,14.83-.8,2.16.43,4,7.26,10.65,7,6.9,8.19,7.7,10.22,6.65S329.94,318.92,331,317c1.29-2.46.49-3.75-7-11C317.57,299.53,315.91,298.36,314,299Z"/><path d="M392.8,299c-1.47.49-14.22,13.23-14.83,14.83-.8,2.16.43,4,7.26,10.65,7,6.9,8.19,7.7,10.22,6.65s13.3-12.25,14.35-14.22c1.29-2.46.49-3.75-7-11C396.37,299.53,394.71,298.36,392.8,299Z"/><path d="M471.61,299c-1.48.49-14.22,13.23-14.84,14.83-.8,2.16.43,4,7.27,10.65,7,6.9,8.19,7.7,10.22,6.65s13.3-12.25,14.34-14.22c1.3-2.46.5-3.75-7-11C475.18,299.53,473.52,298.36,471.61,299Z"/><path d="M550.42,299c-1.48.49-14.22,13.23-14.84,14.83-.8,2.16.43,4,7.26,10.65,7,6.9,8.19,7.7,10.23,6.65s13.29-12.25,14.34-14.22c1.29-2.46.49-3.75-7-11C554,299.53,552.33,298.36,550.42,299Z"/><path d="M629.22,299c-1.47.49-14.22,13.23-14.83,14.83-.8,2.16.43,4,7.26,10.65,7,6.9,8.19,7.7,10.22,6.65s13.3-12.25,14.35-14.22c1.29-2.46.49-3.75-7-11C632.8,299.53,631.13,298.36,629.22,299Z"/><path d="M708,299c-1.48.49-14.22,13.23-14.84,14.83-.8,2.16.43,4,7.27,10.65,7,6.9,8.19,7.7,10.22,6.65S724,318.92,725,317c1.3-2.46.5-3.75-6.95-11C711.6,299.53,709.94,298.36,708,299Z"/><path d="M786.84,299c-1.48.49-14.22,13.29-14.84,14.83a3.47,3.47,0,0,0,.31,3.08c1.05,2,12.44,13.24,14.41,14.22l1.35.74V315.23c0-9.11-.06-16.63-.12-16.56A6.43,6.43,0,0,0,786.84,299Z"/><path d="M30.66,345.89c-5.23,5.23-7.26,7.69-7.26,8.74,0,2.09,13.91,16,16,16s16-13.92,16-16-13.91-16-16-16C38.36,338.62,35.89,340.66,30.66,345.89Z"/><path d="M109.47,345.89c-5.24,5.23-7.27,7.69-7.27,8.74,0,2.09,13.92,16,16,16s16-13.92,16-16-13.92-16-16-16C117.16,338.62,114.7,340.66,109.47,345.89Z"/><path d="M188.27,345.89c-5.23,5.23-7.26,7.69-7.26,8.74,0,2.09,13.91,16,16,16s16-13.92,16-16c0-1.05-2-3.51-7.27-8.74s-7.7-7.27-8.74-7.27S193.51,340.66,188.27,345.89Z"/><path d="M267.08,345.89c-5.23,5.23-7.26,7.69-7.26,8.74,0,2.09,13.91,16,16,16s16-13.92,16-16c0-1.05-2-3.51-7.26-8.74s-7.7-7.27-8.75-7.27S272.32,340.66,267.08,345.89Z"/><path d="M345.89,345.89c-5.23,5.23-7.27,7.69-7.27,8.74s2,3.51,7.27,8.74,7.69,7.27,8.74,7.27,3.51-2,8.74-7.27,7.27-7.69,7.27-8.74-2-3.51-7.27-8.74-7.69-7.27-8.74-7.27S351.12,340.66,345.89,345.89Z"/><path d="M424.7,345.89c-5.24,5.23-7.27,7.69-7.27,8.74s2,3.51,7.27,8.74,7.69,7.27,8.74,7.27,3.51-2,8.74-7.27,7.27-7.69,7.27-8.74-2-3.51-7.27-8.74-7.69-7.27-8.74-7.27S429.93,340.66,424.7,345.89Z"/><path d="M503.5,345.89c-5.23,5.23-7.26,7.69-7.26,8.74s2,3.51,7.26,8.74,7.7,7.27,8.75,7.27,3.5-2,8.74-7.27,7.26-7.69,7.26-8.74-2-3.51-7.26-8.74-7.7-7.27-8.74-7.27S508.74,340.66,503.5,345.89Z"/><path d="M582.31,345.89c-5.23,5.23-7.27,7.69-7.27,8.74s2,3.51,7.27,8.74,7.7,7.27,8.74,7.27,3.51-2,8.75-7.27,7.26-7.69,7.26-8.74-2-3.51-7.26-8.74-7.7-7.27-8.75-7.27S587.54,340.66,582.31,345.89Z"/><path d="M661.12,345.89c-5.24,5.23-7.27,7.69-7.27,8.74,0,2.09,13.92,16,16,16s16-13.92,16-16-13.92-16-16-16C668.81,338.62,666.35,340.66,661.12,345.89Z"/><path d="M739.92,345.89c-5.23,5.23-7.26,7.69-7.26,8.74,0,2.09,13.91,16,16,16s16-13.92,16-16-13.91-16-16-16C747.62,338.62,745.16,340.66,739.92,345.89Z"/><path d="M0,394c0,17.6.06,19.08,1.05,19.08.61,0,4.86-3.82,9.54-8.5,11.21-11.2,11.21-10,0-21.17-4.68-4.68-8.93-8.5-9.54-8.5C.06,375,0,376.43,0,394Z"/><path d="M68.22,383.45c-7.64,7.57-8.5,8.68-8.5,10.59s.86,3,8.5,10.58,8.68,8.5,10.59,8.5,3-.86,10.59-8.5,8.49-8.68,8.49-10.58-.86-3-8.49-10.59S80.72,375,78.81,375,75.79,375.81,68.22,383.45Z"/><path d="M147,383.45c-7.63,7.57-8.49,8.68-8.49,10.59s.86,3,8.49,10.58,8.69,8.5,10.59,8.5,3-.86,10.59-8.5,8.5-8.68,8.5-10.58-.86-3-8.5-10.59-8.68-8.5-10.59-8.5S154.6,375.81,147,383.45Z"/><path d="M225.83,383.45c-7.63,7.57-8.5,8.68-8.5,10.59s.87,3,8.5,10.58,8.68,8.5,10.59,8.5,3-.86,10.59-8.5,8.5-8.68,8.5-10.58-.86-3-8.5-10.59-8.68-8.5-10.59-8.5S233.4,375.81,225.83,383.45Z"/><path d="M304.64,383.45c-7.64,7.57-8.5,8.68-8.5,10.59s.86,3,8.5,10.58,8.68,8.5,10.59,8.5,3-.86,10.59-8.5,8.49-8.68,8.49-10.58-.86-3-8.49-10.59-8.68-8.5-10.59-8.5S312.21,375.81,304.64,383.45Z"/><path d="M383.45,383.45C375.81,391,375,392.13,375,394s.86,3,8.5,10.58,8.68,8.5,10.59,8.5,3-.86,10.58-8.5,8.5-8.68,8.5-10.58-.86-3-8.5-10.59S395.94,375,394,375,391,375.81,383.45,383.45Z"/><path d="M462.25,383.45c-7.63,7.57-8.49,8.68-8.49,10.59s.86,3,8.49,10.58,8.68,8.5,10.59,8.5,3-.86,10.59-8.5,8.5-8.68,8.5-10.58-.86-3-8.5-10.59-8.68-8.5-10.59-8.5S469.83,375.81,462.25,383.45Z"/><path d="M541.06,383.45c-7.64,7.57-8.5,8.68-8.5,10.59s.86,3,8.5,10.58,8.68,8.5,10.59,8.5,3-.86,10.59-8.5,8.5-8.68,8.5-10.58-.87-3-8.5-10.59-8.68-8.5-10.59-8.5S548.63,375.81,541.06,383.45Z"/><path d="M619.87,383.45c-7.64,7.57-8.5,8.68-8.5,10.59s.86,3,8.5,10.58,8.68,8.5,10.59,8.5,3-.86,10.59-8.5,8.49-8.68,8.49-10.58-.86-3-8.49-10.59-8.69-8.5-10.59-8.5S627.44,375.81,619.87,383.45Z"/><path d="M698.67,383.45c-7.63,7.57-8.49,8.68-8.49,10.59s.86,3,8.49,10.58,8.68,8.5,10.59,8.5,3-.86,10.59-8.5,8.5-8.68,8.5-10.58-.86-3-8.5-10.59-8.68-8.5-10.59-8.5S706.25,375.81,698.67,383.45Z"/><path d="M777.48,383.45C769.85,391,769,392.13,769,394s.87,3,8.5,10.58c4.68,4.68,8.93,8.5,9.54,8.5,1,0,1.05-1.48,1.05-19.08S788,375,787,375C786.41,375,782.16,378.77,777.48,383.45Z"/><path d="M29.12,423.22c-10.77,10.83-10.77,9.66,0,20.5s9.73,10.84,20.57,0c7.26-7.26,8.18-8.43,8.18-10.28s-.92-3-8.18-10.28C38.79,412.32,39.9,412.32,29.12,423.22Z"/><path d="M107.93,423.22c-10.78,10.83-10.78,9.66,0,20.5,7.26,7.27,8.43,8.19,10.28,8.19s3-.92,10.28-8.19,8.19-8.43,8.19-10.28-.92-3-8.19-10.28C117.59,412.32,118.7,412.32,107.93,423.22Z"/><path d="M186.74,423.22c-10.78,10.83-10.78,9.66,0,20.5,7.26,7.27,8.43,8.19,10.28,8.19s3-.92,10.28-8.19c10.84-10.84,10.84-9.73,0-20.56S197.51,412.32,186.74,423.22Z"/><path d="M265.54,423.22c-10.77,10.83-10.77,9.66,0,20.5,7.27,7.27,8.44,8.19,10.28,8.19s3-.92,10.29-8.19c10.83-10.84,10.83-9.73,0-20.56S276.32,412.32,265.54,423.22Z"/><path d="M344.35,423.22c-10.77,10.83-10.77,9.66,0,20.5,7.26,7.27,8.43,8.19,10.28,8.19s3-.92,10.28-8.19,8.19-8.43,8.19-10.28-.92-3-8.19-10.28C354,412.32,355.12,412.32,344.35,423.22Z"/><path d="M423.16,423.22c-10.78,10.83-10.78,9.66,0,20.5,7.26,7.27,8.43,8.19,10.28,8.19s3-.92,10.28-8.19,8.19-8.43,8.19-10.28-.92-3-8.19-10.28C432.82,412.32,433.93,412.32,423.16,423.22Z"/><path d="M502,423.22c-10.77,10.83-10.77,9.66,0,20.5,7.27,7.27,8.44,8.19,10.29,8.19s3-.92,10.28-8.19,8.19-8.43,8.19-10.28-.93-3-8.19-10.28C511.63,412.32,512.74,412.32,502,423.22Z"/><path d="M580.77,423.22c-10.77,10.83-10.77,9.66,0,20.5,7.27,7.27,8.44,8.19,10.28,8.19s3-.92,10.28-8.19,8.19-8.43,8.19-10.28-.92-3-8.19-10.28C590.44,412.32,591.55,412.32,580.77,423.22Z"/><path d="M659.58,423.22c-10.78,10.83-10.78,9.66,0,20.5,7.26,7.27,8.43,8.19,10.28,8.19s3-.92,10.28-8.19,8.19-8.43,8.19-10.28-.92-3-8.19-10.28C669.24,412.32,670.35,412.32,659.58,423.22Z"/><path d="M738.38,423.22c-10.77,10.83-10.77,9.66,0,20.5,7.27,7.27,8.44,8.19,10.29,8.19s3-.92,10.28-8.19,8.19-8.43,8.19-10.28-.93-3-8.19-10.28C748.05,412.32,749.16,412.32,738.38,423.22Z"/><path d="M0,472.84v22.23l1.42-.37c.73-.25,5.66-4.68,10.89-9.91,12.75-12.69,12.75-11.21,0-23.89C7.08,455.66,2.15,451.23,1.42,451L0,450.62Z"/><path d="M76.65,451.23c-.68.31-5.35,4.74-10.46,9.85-12.44,12.5-12.44,11,.49,23.89,9.23,9.3,9.73,9.73,12.13,9.73s2.89-.43,12.13-9.73c13-12.93,12.93-11.33.18-24.13C81.33,451.05,79.61,449.94,76.65,451.23Z"/><path d="M155.46,451.23c-.68.31-5.36,4.74-10.47,9.85-12.43,12.5-12.43,11,.5,23.89,9.23,9.3,9.72,9.73,12.12,9.73s2.9-.43,12.13-9.73c13-12.93,12.93-11.33.19-24.13C160.14,451.05,158.41,449.94,155.46,451.23Z"/><path d="M234.27,451.23c-.68.31-5.36,4.74-10.47,9.85-12.44,12.5-12.44,11,.49,23.89,9.24,9.3,9.73,9.73,12.13,9.73s2.89-.43,12.13-9.73c13-12.93,12.93-11.33.18-24.13C239,451.05,237.22,449.94,234.27,451.23Z"/><path d="M313.07,451.23c-.67.31-5.35,4.74-10.46,9.85-12.44,12.5-12.44,11,.49,23.89,9.23,9.3,9.73,9.73,12.13,9.73s2.89-.43,12.13-9.73c13-12.93,12.93-11.33.18-24.13C317.75,451.05,316,449.94,313.07,451.23Z"/><path d="M391.88,451.23c-.68.31-5.36,4.74-10.47,9.85-12.43,12.5-12.43,11,.5,23.89,9.23,9.3,9.72,9.73,12.13,9.73s2.89-.43,12.12-9.73c13-12.93,12.93-11.33.19-24.13C396.56,451.05,394.84,449.94,391.88,451.23Z"/><path d="M470.69,451.23c-.68.31-5.36,4.74-10.47,9.85-12.44,12.5-12.44,11,.49,23.89,9.24,9.3,9.73,9.73,12.13,9.73s2.9-.43,12.13-9.73c13-12.93,12.93-11.33.19-24.13C475.37,451.05,473.64,449.94,470.69,451.23Z"/><path d="M549.49,451.23c-.67.31-5.35,4.74-10.46,9.85-12.44,12.5-12.44,11,.49,23.89,9.24,9.3,9.73,9.73,12.13,9.73s2.89-.43,12.13-9.73c13-12.93,12.93-11.33.18-24.13C554.17,451.05,552.45,449.94,549.49,451.23Z"/><path d="M628.3,451.23c-.68.31-5.36,4.74-10.47,9.85-12.43,12.5-12.43,11,.5,23.89,9.23,9.3,9.72,9.73,12.13,9.73s2.89-.43,12.13-9.73c13-12.93,12.92-11.33.18-24.13C633,451.05,631.26,449.94,628.3,451.23Z"/><path d="M707.11,451.23c-.68.31-5.36,4.74-10.47,9.85-12.44,12.5-12.44,11,.49,23.89,9.24,9.3,9.73,9.73,12.13,9.73s2.9-.43,12.13-9.73c13-12.93,12.93-11.33.19-24.13C711.79,451.05,710.06,449.94,707.11,451.23Z"/><path d="M785.92,451.29c-.68.25-5.36,4.68-10.47,9.79-12.38,12.5-12.44,11.08.31,23.71,5.23,5.23,10.16,9.66,11,9.91l1.35.37V472.9c0-12.25-.18-22.22-.43-22.16A6,6,0,0,0,785.92,451.29Z"/><path d="M27.89,500.73c-8.5,8.5-9.42,9.61-9.42,11.52s.92,3,9.42,11.51,9.6,9.42,11.51,9.42,3-.92,11.52-9.42,9.42-9.61,9.42-11.51-.93-3-9.42-11.52-9.61-9.42-11.52-9.42S36.39,492.24,27.89,500.73Z"/><path d="M106.7,500.73c-8.5,8.5-9.42,9.61-9.42,11.52s.92,3,9.42,11.51,9.6,9.42,11.51,9.42,3-.92,11.51-9.42,9.42-9.61,9.42-11.51-.92-3-9.42-11.52-9.6-9.42-11.51-9.42S115.19,492.24,106.7,500.73Z"/><path d="M185.5,500.73c-8.49,8.5-9.42,9.61-9.42,11.52s.93,3,9.42,11.51,9.61,9.42,11.52,9.42,3-.92,11.51-9.42,9.42-9.61,9.42-11.51-.92-3-9.42-11.52-9.6-9.42-11.51-9.42S194,492.24,185.5,500.73Z"/><path d="M264.31,500.73c-8.5,8.5-9.42,9.61-9.42,11.52s.92,3,9.42,11.51,9.61,9.42,11.51,9.42,3-.92,11.52-9.42,9.42-9.61,9.42-11.51-.93-3-9.42-11.52-9.61-9.42-11.52-9.42S272.81,492.24,264.31,500.73Z"/><path d="M343.12,500.73c-8.5,8.5-9.42,9.61-9.42,11.52s.92,3,9.42,11.51,9.6,9.42,11.51,9.42,3-.92,11.51-9.42,9.42-9.61,9.42-11.51-.92-3-9.42-11.52-9.6-9.42-11.51-9.42S351.61,492.24,343.12,500.73Z"/><path d="M421.93,500.73c-8.5,8.5-9.42,9.61-9.42,11.52s.92,3,9.42,11.51,9.6,9.42,11.51,9.42,3-.92,11.51-9.42,9.42-9.61,9.42-11.51-.92-3-9.42-11.52-9.6-9.42-11.51-9.42S430.42,492.24,421.93,500.73Z"/><path d="M500.73,500.73c-8.49,8.5-9.42,9.61-9.42,11.52s.93,3,9.42,11.51,9.61,9.42,11.52,9.42,3-.92,11.51-9.42,9.42-9.61,9.42-11.51-.92-3-9.42-11.52-9.61-9.42-11.51-9.42S509.23,492.24,500.73,500.73Z"/><path d="M579.54,500.73c-8.5,8.5-9.42,9.61-9.42,11.52s.92,3,9.42,11.51,9.6,9.42,11.51,9.42,3-.92,11.52-9.42,9.42-9.61,9.42-11.51-.93-3-9.42-11.52-9.61-9.42-11.52-9.42S588,492.24,579.54,500.73Z"/><path d="M658.35,500.73c-8.5,8.5-9.42,9.61-9.42,11.52s.92,3,9.42,11.51,9.6,9.42,11.51,9.42,3-.92,11.51-9.42,9.42-9.61,9.42-11.51-.92-3-9.42-11.52-9.6-9.42-11.51-9.42S666.84,492.24,658.35,500.73Z"/><path d="M737.15,500.73c-8.49,8.5-9.42,9.61-9.42,11.52s.93,3,9.42,11.51,9.61,9.42,11.52,9.42,3-.92,11.51-9.42,9.42-9.61,9.42-11.51-.92-3-9.42-11.52-9.6-9.42-11.51-9.42S745.65,492.24,737.15,500.73Z"/><path d="M0,551.65v24.63H1.35c1,0,4.75-3.33,12.32-11,10.9-10.9,11-11,11-13.67s-.06-2.77-11-13.67C6.1,530.35,2.34,527,1.35,527H0Z"/><path d="M65.14,538c-10.9,10.9-11,11-11,13.67s.06,2.77,11,13.67,11,11,13.67,11,2.77-.07,13.67-11,11-11,11-13.67-.06-2.77-11-13.67-11-11-13.67-11S76,527.08,65.14,538Z"/><path d="M144,538c-10.9,10.9-11,11-11,13.67s.06,2.77,11,13.67,11,11,13.66,11,2.77-.07,13.67-11,11-11,11-13.67-.06-2.77-11-13.67-11-11-13.67-11S154.84,527.08,144,538Z"/><path d="M222.75,538c-10.89,10.9-11,11-11,13.67s.07,2.77,11,13.67,11,11,13.67,11,2.77-.07,13.67-11,11-11,11-13.67-.06-2.77-11-13.67-11-11-13.67-11S233.65,527.08,222.75,538Z"/><path d="M301.56,538c-10.9,10.9-11,11-11,13.67s.06,2.77,11,13.67,11,11,13.67,11,2.77-.07,13.67-11,11-11,11-13.67-.07-2.77-11-13.67-11-11-13.67-11S312.46,527.08,301.56,538Z"/><path d="M380.37,538c-10.9,10.9-11,11-11,13.67s.06,2.77,11,13.67,11,11,13.67,11,2.77-.07,13.66-11,11-11,11-13.67-.06-2.77-11-13.67-11-11-13.66-11S391.26,527.08,380.37,538Z"/><path d="M459.17,538c-10.89,10.9-11,11-11,13.67s.07,2.77,11,13.67,11,11,13.67,11,2.77-.07,13.67-11,11-11,11-13.67-.06-2.77-11-13.67-11-11-13.67-11S470.07,527.08,459.17,538Z"/><path d="M538,538c-10.9,10.9-11,11-11,13.67s.06,2.77,11,13.67,11,11,13.67,11,2.77-.07,13.67-11,11-11,11-13.67-.07-2.77-11-13.67-11-11-13.67-11S548.88,527.08,538,538Z"/><path d="M616.79,538c-10.9,10.9-11,11-11,13.67s.06,2.77,11,13.67,11,11,13.67,11,2.77-.07,13.66-11,11-11,11-13.67-.06-2.77-11-13.67-11-11-13.66-11S627.69,527.08,616.79,538Z"/><path d="M695.6,538c-10.9,10.9-11,11-11,13.67s.06,2.77,11,13.67,10.95,11,13.66,11,2.77-.07,13.67-11,11-11,11-13.67-.06-2.77-11-13.67-11-11-13.67-11S706.49,527.08,695.6,538Z"/><path d="M774.4,538c-10.9,10.9-11,11-11,13.67s.06,2.77,11,13.67c7.57,7.63,11.33,11,12.32,11h1.35V527h-1.35C785.73,527,782,530.35,774.4,538Z"/><path d="M26.35,578c-14,13.91-14,12.19,0,26.11,10.22,10.28,10.34,10.34,13,10.34s2.84-.06,13.06-10.34S62.8,593.76,62.8,591.05s-.06-2.83-10.34-13S42.11,567.66,39.4,567.66,36.57,567.72,26.35,578Z"/><path d="M105.16,578c-10.28,10.22-10.35,10.34-10.35,13s.07,2.83,10.35,13.06,10.34,10.34,13,10.34,2.83-.06,13-10.34,10.35-10.35,10.35-13.06-.07-2.83-10.35-13-10.34-10.34-13-10.34S115.38,567.72,105.16,578Z"/><path d="M184,578c-10.29,10.22-10.35,10.34-10.35,13s.06,2.83,10.35,13.06,10.34,10.34,13.05,10.34,2.83-.06,13-10.34,10.34-10.35,10.34-13.06-.06-2.83-10.34-13-10.34-10.34-13-10.34S194.19,567.72,184,578Z"/><path d="M262.77,578c-10.28,10.22-10.34,10.34-10.34,13s.06,2.83,10.34,13.06,10.35,10.34,13.05,10.34,2.84-.06,13.06-10.34,10.34-10.35,10.34-13.06-.06-2.83-10.34-13-10.35-10.34-13.06-10.34S273,567.72,262.77,578Z"/><path d="M341.58,578c-10.28,10.22-10.34,10.34-10.34,13s.06,2.83,10.34,13.06,10.34,10.34,13.05,10.34,2.83-.06,13.05-10.34S378,593.76,378,591.05s-.06-2.83-10.35-13-10.34-10.34-13.05-10.34S351.8,567.72,341.58,578Z"/><path d="M420.39,578c-10.29,10.22-10.35,10.34-10.35,13s.06,2.83,10.35,13.06,10.34,10.34,13.05,10.34,2.83-.06,13.05-10.34,10.34-10.35,10.34-13.06-.06-2.83-10.34-13-10.34-10.34-13.05-10.34S430.61,567.72,420.39,578Z"/><path d="M499.19,578c-10.28,10.22-10.34,10.34-10.34,13s.06,2.83,10.34,13.06,10.35,10.34,13.06,10.34,2.83-.06,13-10.34,10.34-10.35,10.34-13.06-.06-2.83-10.34-13-10.35-10.34-13-10.34S509.41,567.72,499.19,578Z"/><path d="M578,578c-10.28,10.22-10.34,10.34-10.34,13s.06,2.83,10.34,13.06,10.34,10.34,13,10.34,2.83-.06,13.06-10.34,10.34-10.35,10.34-13.06-.06-2.83-10.34-13-10.35-10.34-13.06-10.34S588.22,567.72,578,578Z"/><path d="M656.81,578c-10.28,10.22-10.35,10.34-10.35,13s.07,2.83,10.35,13.06,10.34,10.34,13.05,10.34,2.83-.06,13-10.34,10.35-10.35,10.35-13.06-.07-2.83-10.35-13-10.34-10.34-13-10.34S667,567.72,656.81,578Z"/><path d="M735.61,578c-10.28,10.22-10.34,10.34-10.34,13s.06,2.83,10.34,13.06,10.35,10.34,13.06,10.34,2.83-.06,13.05-10.34,10.34-10.35,10.34-13.06-.06-2.83-10.34-13-10.34-10.34-13.05-10.34S745.83,567.72,735.61,578Z"/><path d="M0,630.39c0,19,.18,27.77.62,27.77,1.78,0,4.92-2.71,15.39-13.17L27.4,633.53v-6.15l-12-12C7.76,607.8,2.77,603.3,1.72,603L0,602.63Z"/><path d="M76,603.3c-.68.31-6.47,5.85-12.93,12.32l-11.7,11.76v6.15l12,12c12.19,12.19,13.66,13.24,17.11,12.37,1-.24,6.1-4.8,13.67-12.37l12-12v-6.15L94.14,615.31c-11-11-12.25-12.07-14.47-12.31A9.18,9.18,0,0,0,76,603.3Z"/><path d="M154.84,603.3c-.67.31-6.46,5.85-12.93,12.32l-11.69,11.76v6.15l12,12c12.19,12.19,13.67,13.24,17.12,12.37,1-.24,6.09-4.8,13.67-12.37l12-12v-6.15l-12.07-12.07c-10.95-11-12.25-12.07-14.46-12.31A9.23,9.23,0,0,0,154.84,603.3Z"/><path d="M233.65,603.3c-.68.31-6.46,5.85-12.93,12.32L209,627.38v6.15l12,12c12.19,12.19,13.67,13.24,17.11,12.37,1.05-.24,6.1-4.8,13.67-12.37l12-12v-6.15l-12.07-12.07c-11-11-12.25-12.07-14.47-12.31A9.2,9.2,0,0,0,233.65,603.3Z"/><path d="M312.46,603.3c-.68.31-6.47,5.85-12.93,12.32l-11.7,11.76v6.15l12,12c7.57,7.57,12.62,12.13,13.73,12.37,3.38.87,4.86-.18,17.05-12.37l12-12v-6.15l-12.07-12.07c-11-11-12.25-12.07-14.47-12.31A9.18,9.18,0,0,0,312.46,603.3Z"/><path d="M391.26,603.3c-.67.31-6.46,5.85-12.92,12.32l-11.7,11.76v6.15l12,12c12.19,12.19,13.67,13.24,17.12,12.37,1.05-.24,6.09-4.8,13.67-12.37l12-12v-6.15l-12.06-12.07c-11-11-12.26-12.07-14.47-12.31A9.23,9.23,0,0,0,391.26,603.3Z"/><path d="M470.07,603.3c-.68.31-6.46,5.85-12.93,12.32l-11.7,11.76v6.15l12,12c12.19,12.19,13.67,13.24,17.12,12.37,1-.24,6.09-4.8,13.66-12.37l12-12v-6.15l-12.07-12.07c-11-11-12.25-12.07-14.47-12.31A9.2,9.2,0,0,0,470.07,603.3Z"/><path d="M548.88,603.3c-.68.31-6.47,5.85-12.93,12.32l-11.7,11.76v6.15l12,12c12.19,12.19,13.67,13.24,17.11,12.37,1-.24,6.1-4.8,13.67-12.37l12-12v-6.15L567,615.31c-11-11-12.25-12.07-14.47-12.31A9.2,9.2,0,0,0,548.88,603.3Z"/><path d="M627.69,603.3c-.68.31-6.47,5.85-12.93,12.32l-11.7,11.76v6.15l12,12c12.19,12.19,13.67,13.24,17.12,12.37,1.05-.24,6.1-4.8,13.67-12.37l12-12v-6.15l-12.06-12.07c-11-11-12.26-12.07-14.47-12.31A9.18,9.18,0,0,0,627.69,603.3Z"/><path d="M706.49,603.3c-.67.31-6.46,5.85-12.93,12.32l-11.69,11.76v6.15l12,12c12.19,12.19,13.67,13.24,17.12,12.37,1-.24,6.09-4.8,13.67-12.37l12-12v-6.15l-12.07-12.07c-11-11-12.25-12.07-14.46-12.31A9.23,9.23,0,0,0,706.49,603.3Z"/><path d="M785.3,603.37c-.68.24-6.47,5.78-12.93,12.25l-11.7,11.76v6.15L772.06,645c10.47,10.46,13.61,13.17,15.39,13.17.44,0,.62-8.74.62-27.7C788.07,601.15,788.19,602.13,785.3,603.37Z"/><path d="M36.57,644.62c-3.32,1.66-21.49,19.94-22.72,23-.86,2-.86,2.53,0,4.56,1.3,3.14,19.46,21.36,22.91,23l2.64,1.3,2.65-1.3c3.45-1.66,21.61-19.88,22.9-23,1.48-3.63.25-5.61-10.34-16.32C42.42,643.51,40.82,642.52,36.57,644.62Z"/><path d="M115.38,644.62c-3.33,1.66-21.49,19.94-22.72,23-.86,2-.86,2.53,0,4.56,1.29,3.14,19.46,21.36,22.9,23l2.65,1.3,2.65-1.3c3.45-1.66,21.61-19.88,22.9-23,1.48-3.63.25-5.61-10.34-16.32C121.23,643.51,119.63,642.52,115.38,644.62Z"/><path d="M194.19,644.62c-3.33,1.66-21.49,19.94-22.72,23-.87,2-.87,2.53,0,4.56,1.29,3.14,19.45,21.36,22.9,23l2.65,1.3,2.64-1.3c3.45-1.66,21.62-19.88,22.91-23,1.48-3.63.24-5.61-10.35-16.32C200,643.51,198.43,642.52,194.19,644.62Z"/><path d="M273,644.62c-3.32,1.66-21.48,19.94-22.72,23-.86,2-.86,2.53,0,4.56,1.3,3.14,19.46,21.36,22.91,23l2.64,1.3,2.65-1.3c3.45-1.66,21.61-19.88,22.91-23,1.47-3.63.24-5.61-10.35-16.32C278.84,643.51,277.24,642.52,273,644.62Z"/><path d="M351.8,644.62c-3.33,1.66-21.49,19.94-22.72,23-.86,2-.86,2.53,0,4.56,1.29,3.14,19.46,21.36,22.9,23l2.65,1.3,2.65-1.3c3.45-1.66,21.61-19.88,22.9-23,1.48-3.63.25-5.61-10.34-16.32C357.65,643.51,356.05,642.52,351.8,644.62Z"/><path d="M430.61,644.62c-3.33,1.66-21.49,19.94-22.72,23-.86,2-.86,2.53,0,4.56,1.29,3.14,19.45,21.36,22.9,23l2.65,1.3,2.65-1.3c3.44-1.66,21.61-19.88,22.9-23,1.48-3.63.25-5.61-10.34-16.32C436.46,643.51,434.85,642.52,430.61,644.62Z"/><path d="M509.41,644.62c-3.32,1.66-21.48,19.94-22.72,23-.86,2-.86,2.53,0,4.56,1.3,3.14,19.46,21.36,22.91,23l2.65,1.3,2.64-1.3c3.45-1.66,21.61-19.88,22.91-23,1.47-3.63.24-5.61-10.35-16.32C515.26,643.51,513.66,642.52,509.41,644.62Z"/><path d="M588.22,644.62c-3.32,1.66-21.49,19.94-22.72,23-.86,2-.86,2.53,0,4.56,1.29,3.14,19.46,21.36,22.91,23l2.64,1.3,2.65-1.3c3.45-1.66,21.61-19.88,22.9-23,1.48-3.63.25-5.61-10.34-16.32C594.07,643.51,592.47,642.52,588.22,644.62Z"/><path d="M667,644.62c-3.33,1.66-21.49,19.94-22.72,23-.86,2-.86,2.53,0,4.56,1.29,3.14,19.45,21.36,22.9,23l2.65,1.3,2.65-1.3c3.44-1.66,21.61-19.88,22.9-23,1.48-3.63.25-5.61-10.34-16.32C672.88,643.51,671.28,642.52,667,644.62Z"/><path d="M745.83,644.62c-3.32,1.66-21.48,19.94-22.71,23-.87,2-.87,2.53,0,4.56,1.29,3.14,19.45,21.36,22.9,23l2.65,1.3,2.64-1.3c3.45-1.66,21.61-19.88,22.91-23,1.47-3.63.24-5.61-10.35-16.32C751.68,643.51,750.08,642.52,745.83,644.62Z"/><path d="M0,709.2c0,17,.12,30.85.31,30.85,1.91,0,6.22-3.57,16.68-14,13.55-13.42,14.53-14.84,13.12-19.15-.56-1.66-3.82-5.41-11.82-13.48-10.78-11-14.1-13.79-16.87-14.65L0,678.42Z"/><path d="M75.73,679.4c-3.33,1.48-26.11,24.69-27,27.52-1.42,4.37-.49,5.79,13.3,19.4,13.42,13.3,15,14.4,18.84,13.17,3.08-1,27.09-24.93,28.07-28,1.42-4.19.31-5.79-11.82-18.1C91,687.28,85,681.56,83.79,680.7,80.84,678.66,78.38,678.23,75.73,679.4Z"/><path d="M154.54,679.4c-3.33,1.48-26.11,24.69-27,27.52-1.42,4.37-.5,5.79,13.3,19.4,13.42,13.3,15,14.4,18.84,13.17,3.07-1,27.09-24.93,28.07-28,1.42-4.19.31-5.79-11.82-18.1-6.1-6.16-12.07-11.88-13.3-12.74C159.65,678.66,157.18,678.23,154.54,679.4Z"/><path d="M233.34,679.4c-3.32,1.48-26.1,24.69-27,27.52-1.41,4.37-.49,5.79,13.3,19.4,13.42,13.3,15,14.4,18.84,13.17,3.08-1,27.09-24.93,28.08-28,1.41-4.19.31-5.79-11.82-18.1-6.1-6.16-12.07-11.88-13.3-12.74C238.45,678.66,236,678.23,233.34,679.4Z"/><path d="M312.15,679.4c-3.33,1.48-26.11,24.69-27,27.52-1.41,4.37-.49,5.79,13.3,19.4,13.42,13.3,15,14.4,18.84,13.17,3.08-1,27.09-24.93,28.07-28,1.42-4.19.31-5.79-11.82-18.1-6.09-6.16-12.06-11.88-13.29-12.74C317.26,678.66,314.8,678.23,312.15,679.4Z"/><path d="M391,679.4c-3.33,1.48-26.11,24.69-27,27.52-1.42,4.37-.49,5.79,13.3,19.4,13.42,13.3,15,14.4,18.84,13.17,3.08-1,27.09-24.93,28.07-28,1.42-4.19.31-5.79-11.82-18.1-6.09-6.16-12.07-11.88-13.3-12.74C396.07,678.66,393.6,678.23,391,679.4Z"/><path d="M469.76,679.4c-3.32,1.48-26.1,24.69-27,27.52-1.42,4.37-.5,5.79,13.29,19.4,13.43,13.3,15,14.4,18.84,13.17,3.08-1,27.09-24.93,28.08-28,1.41-4.19.31-5.79-11.82-18.1-6.1-6.16-12.07-11.88-13.3-12.74C474.87,678.66,472.41,678.23,469.76,679.4Z"/><path d="M548.57,679.4c-3.32,1.48-26.1,24.69-27,27.52-1.41,4.37-.49,5.79,13.3,19.4,13.42,13.3,15,14.4,18.84,13.17,3.08-1,27.09-24.93,28.08-28,1.41-4.19.3-5.79-11.83-18.1-6.09-6.16-12.06-11.88-13.29-12.74C553.68,678.66,551.22,678.23,548.57,679.4Z"/><path d="M627.38,679.4c-3.33,1.48-26.11,24.69-27,27.52-1.42,4.37-.49,5.79,13.3,19.4,13.42,13.3,15,14.4,18.84,13.17,3.08-1,27.09-24.93,28.07-28,1.42-4.19.31-5.79-11.82-18.1-6.09-6.16-12.07-11.88-13.3-12.74C632.49,678.66,630,678.23,627.38,679.4Z"/><path d="M706.18,679.4c-3.32,1.48-26.1,24.69-27,27.52-1.42,4.37-.5,5.79,13.3,19.4,13.42,13.3,15,14.4,18.83,13.17,3.08-1,27.09-24.93,28.08-28,1.42-4.19.31-5.79-11.82-18.1-6.1-6.16-12.07-11.88-13.3-12.74C711.29,678.66,708.83,678.23,706.18,679.4Z"/><path d="M785,679.46c-3.32,1.42-26.1,24.63-27,27.46-1.41,4.37-.49,5.79,13.12,19.21,10.46,10.35,14.71,13.92,16.68,13.92.19,0,.31-13.86.31-30.79s-.18-30.78-.43-30.78A23.73,23.73,0,0,0,785,679.46Z"/><path d="M36.94,720.41c-.86.3-6.89,5.91-13.42,12.43C11,745.4,9.85,747,11,750.7,11.88,753.16,34.6,776,37.19,777c3.69,1.35,5,.49,17.73-12.19,12.93-12.87,14.1-14.41,12.87-18.17-.8-2.4-23.52-25.3-26.11-26.28A5.15,5.15,0,0,0,36.94,720.41Z"/><path d="M115.75,720.41c-.86.3-6.9,5.91-13.42,12.43C89.77,745.4,88.66,747,89.83,750.7,90.69,753.16,113.41,776,116,777c3.7,1.35,5,.49,17.74-12.19,12.92-12.87,14.09-14.41,12.86-18.17-.8-2.4-23.52-25.3-26.1-26.28A5.15,5.15,0,0,0,115.75,720.41Z"/><path d="M194.55,720.41c-.86.3-6.89,5.91-13.42,12.43-12.56,12.56-13.67,14.16-12.5,17.86.87,2.46,23.59,25.3,26.17,26.29,3.7,1.35,5,.49,17.73-12.19,12.93-12.87,14.1-14.41,12.87-18.17-.8-2.4-23.52-25.3-26.1-26.28A5.17,5.17,0,0,0,194.55,720.41Z"/><path d="M273.36,720.41c-.86.3-6.89,5.91-13.42,12.43-12.56,12.56-13.67,14.16-12.5,17.86C248.3,753.16,271,776,273.61,777c3.69,1.35,5,.49,17.73-12.19,12.93-12.87,14.1-14.41,12.87-18.17-.8-2.4-23.52-25.3-26.11-26.28A5.15,5.15,0,0,0,273.36,720.41Z"/><path d="M352.17,720.41c-.86.3-6.9,5.91-13.42,12.43-12.56,12.56-13.67,14.16-12.5,17.86.86,2.46,23.58,25.3,26.17,26.29,3.69,1.35,5,.49,17.73-12.19,12.93-12.87,14.1-14.41,12.86-18.17-.8-2.4-23.51-25.3-26.1-26.28A5.15,5.15,0,0,0,352.17,720.41Z"/><path d="M431,720.41c-.87.3-6.9,5.91-13.43,12.43C405,745.4,403.89,747,405.06,750.7c.86,2.46,23.58,25.3,26.16,26.29,3.7,1.35,5,.49,17.73-12.19,12.93-12.87,14.1-14.41,12.87-18.17-.8-2.4-23.52-25.3-26.1-26.28A5.15,5.15,0,0,0,431,720.41Z"/><path d="M509.78,720.41c-.86.3-6.89,5.91-13.42,12.43C483.8,745.4,482.69,747,483.86,750.7c.86,2.46,23.58,25.3,26.17,26.29,3.69,1.35,5,.49,17.73-12.19,12.93-12.87,14.1-14.41,12.87-18.17-.8-2.4-23.52-25.3-26.11-26.28A5.15,5.15,0,0,0,509.78,720.41Z"/><path d="M588.59,720.41c-.86.3-6.9,5.91-13.42,12.43C562.61,745.4,561.5,747,562.67,750.7c.86,2.46,23.58,25.3,26.17,26.29,3.69,1.35,5,.49,17.73-12.19,12.93-12.87,14.1-14.41,12.87-18.17-.8-2.4-23.52-25.3-26.11-26.28A5.15,5.15,0,0,0,588.59,720.41Z"/><path d="M667.4,720.41c-.87.3-6.9,5.91-13.42,12.43-12.56,12.56-13.67,14.16-12.5,17.86.86,2.46,23.58,25.3,26.16,26.29,3.7,1.35,5,.49,17.73-12.19,12.93-12.87,14.1-14.41,12.87-18.17-.8-2.4-23.52-25.3-26.1-26.28A5.15,5.15,0,0,0,667.4,720.41Z"/><path d="M746.2,720.41c-.86.3-6.89,5.91-13.42,12.43-12.56,12.56-13.67,14.16-12.5,17.86.87,2.46,23.58,25.3,26.17,26.29,3.69,1.35,5,.49,17.73-12.19,12.93-12.87,14.1-14.41,12.87-18.17-.8-2.4-23.52-25.3-26.11-26.28A5.15,5.15,0,0,0,746.2,720.41Z"/><path d="M0,771.39v16.68H16.62c18.1,0,17.37.18,16-3.45C32,783,10.47,760.73,6,757.22a11.54,11.54,0,0,0-4.12-2.15L0,754.64Z"/><path d="M75.17,755.5C73.64,756.12,51.16,778,48,782a11.54,11.54,0,0,0-2.15,4.12l-.37,1.91h66.8l-.43-1.91a11.58,11.58,0,0,0-2.16-4.12c-3.51-4.44-25.73-25.92-27.4-26.6A11.14,11.14,0,0,0,75.17,755.5Z"/><path d="M154,755.5c-1.54.62-24,22.47-27.21,26.54a11.58,11.58,0,0,0-2.16,4.12l-.37,1.91h66.81l-.44-1.91a11.54,11.54,0,0,0-2.15-4.12c-3.51-4.44-25.74-25.92-27.4-26.6A11.14,11.14,0,0,0,154,755.5Z"/><path d="M232.79,755.5c-1.54.62-24,22.47-27.21,26.54a11.58,11.58,0,0,0-2.16,4.12l-.37,1.91h66.8l-.43-1.91a11.54,11.54,0,0,0-2.15-4.12c-3.51-4.44-25.74-25.92-27.4-26.6A11.14,11.14,0,0,0,232.79,755.5Z"/><path d="M311.6,755.5c-1.54.62-24,22.47-27.22,26.54a11.54,11.54,0,0,0-2.15,4.12l-.37,1.91h66.8l-.43-1.91a11.58,11.58,0,0,0-2.16-4.12c-3.51-4.44-25.73-25.92-27.39-26.6A11.14,11.14,0,0,0,311.6,755.5Z"/><path d="M390.4,755.5c-1.54.62-24,22.47-27.21,26.54a11.58,11.58,0,0,0-2.16,4.12l-.36,1.91h66.8l-.43-1.91a11.58,11.58,0,0,0-2.16-4.12c-3.51-4.44-25.73-25.92-27.4-26.6A11.14,11.14,0,0,0,390.4,755.5Z"/><path d="M469.21,755.5c-1.54.62-24,22.47-27.21,26.54a11.58,11.58,0,0,0-2.16,4.12l-.37,1.91h66.8l-.43-1.91a11.54,11.54,0,0,0-2.15-4.12c-3.51-4.44-25.74-25.92-27.4-26.6A11.14,11.14,0,0,0,469.21,755.5Z"/><path d="M548,755.5c-1.54.62-24,22.47-27.22,26.54a11.54,11.54,0,0,0-2.15,4.12l-.37,1.91h66.8l-.43-1.91a11.58,11.58,0,0,0-2.16-4.12c-3.5-4.44-25.73-25.92-27.39-26.6A11.14,11.14,0,0,0,548,755.5Z"/><path d="M626.82,755.5c-1.54.62-24,22.47-27.21,26.54a11.54,11.54,0,0,0-2.15,4.12l-.37,1.91h66.8l-.43-1.91A11.58,11.58,0,0,0,661.3,782c-3.51-4.44-25.73-25.92-27.4-26.6A11.14,11.14,0,0,0,626.82,755.5Z"/><path d="M705.63,755.5c-1.54.62-24,22.47-27.21,26.54a11.58,11.58,0,0,0-2.16,4.12l-.37,1.91h66.8l-.43-1.91a11.54,11.54,0,0,0-2.15-4.12c-3.51-4.44-25.74-25.92-27.4-26.6A11.14,11.14,0,0,0,705.63,755.5Z"/><path d="M784.44,755.5c-1.54.62-24,22.47-27.22,26.54a11.54,11.54,0,0,0-2.15,4.12l-.37,1.91h33.37V771.45C788.07,753.16,788.25,754,784.44,755.5Z"/></svg>